<?xml version="1.0" encoding="UTF-8"?>
<svg id="_レイヤー_1" data-name="レイヤー_1" xmlns="http://www.w3.org/2000/svg" viewBox="0 0 320 320">
  <defs>
    <style>
      .cls-1 {
        fill: #fff;
      }

      .cls-2 {
        fill: #094725;
      }
    </style>
  </defs>
  <rect class="cls-2" width="320" height="320"/>
  <g>
    <path class="cls-1" d="M42.7,171.45c.07,1.11.88,2.65,1.61,4.13-.22-1.33-.7-2.61-1.61-4.13Z"/>
    <path class="cls-1" d="M44.32,175.62l.02.02s-.02-.04-.02-.05c0,.01,0,.02,0,.03Z"/>
    <path class="cls-1" d="M244.5,154.52c-.26.31-.55.67-.84,1.03.3-.33.6-.67.84-1.03Z"/>
    <path class="cls-1" d="M89.98,241.13l.76-.35c2.66,2.88.1,1.46,2.7,4,1.76.28,4.1,4.42,5.4,4.91-.08.04,1.13,1.34.8,1.51.82-.05,1.36,1.22,2.28,1.89.41.16-.08-.34-.17-.68l1.99,1.63c.58.84.5,1.27-.32.56,1.18,1.19,3.43,3.57,6.35,6.41,2.95,2.81,6.46,6.22,10.16,9.43,3.62,3.3,7.45,6.4,10.65,9.04,3.23,2.6,5.95,4.59,7.43,5.65-.46-.94-2.42-2.05-2.65-3.14,1.76.84,2.14,1.82,3.07,1.99-.04.66.76,1.35,1.62,2.09,1.49,1,3.14,2.09,3.9,3.19l1.02-.08,1.16,1.14c5.93,3.28,6.53,3.57,7.04,3.9.12.09.23.16.41.29.18.13.42.34.86.41.43.1,1.01.23,1.89.31.85.07,2.17.07,3.63-.25.42-.1.8-.22,1.17-.35.37-.13.71-.26,1.05-.52.67-.46,1.29-.9,1.88-1.31.58-.42,1.12-.82,1.63-1.19.25-.21.51-.34.73-.59.22-.25.44-.5.65-.74,1.67-1.95,3.03-3.42,4.65-4.94-.46.5-1.9,1.44-.61-.14.15.04.44-.22.81-.62.17-.19.41-.46.58-.67.11-.15.23-.32.35-.48.49-.67.98-1.38,1.37-1.41.72-.89,3.12-3.63,1.76-3.16.69-.23,2.87-2.63,1.89-.94.71-.83,1.46-1.59,1.83-2.3l-1.04.96c2.24-2.92,3.88-4.16,4.79-6.44l-1.05.89c1.29-1.75,2.3-3.23,3.4-3.48l-1.15,1.91c2.14-2.89,3.34-4.66,4.74-7.28l-.63.84c.81-1.74,3.88-6.69,6.81-11.55,2.93-4.85,5.85-9.62,6.46-11.25l-1.36.93,1.29-2.63c-.2.27.69,2.2.37,2.33,1.76-2.54,7.25-10.39,12.88-18.06,5.62-7.68,11.41-15.17,13.32-17.3,1.67-1.62.96.23,1.02.3,1.56-2.33.27-1.32,1.78-3.17.48-.45.27.38.1.72.59-.86,1.34-1.5,1.18-1.73-.97.9-1.18.03-1.88.18l1.95-2.37.26.38c.44-.53.12-2.11,2.19-4.32,3.33-3.85,6.67-8.24,10.01-12.12.15.23-.41,1.16-.97,2.09.45-.52,1.06-1.37,1.61-1.73-1.15.65,1.12-1.85.36-1.24,1.55-3.58,5.41-6.66,6.99-9.66-.59-.83-8.15-16.27-9.01-17.05.7-.78,1.39-1.56,1.67-1.74-.38.03-1.82,1.5-2.41,2.43l.35.55c-1.47,2.05-.66.21-2.22,2.1-.47-.23.91-2.01,2.17-3.56-1.21,1.32-2.65,2.43-2.7,3.35-1.25,1.15-.35-.55-1.83.86-.82,1.2-1.66,2.97-2.96,4.04l-.05-.08c-2.99,2.76-3.36,5.22-6.1,7.74l.12-.41c-1.06.82-2.38,3.05-4.1,4.67.5-.46,1.15-.67.31.46-1.96,1.89-2.86,3.52-4.4,4.82l-.8,1.79c-2.98,3.63-10.07,12.85-16.95,22.23-6.88,9.38-13.54,18.92-16.24,22.78l.15-.35c-4.03,5.86-10.19,14.79-16.38,23.78-3.06,4.37-6.15,8.6-9.08,12.34-1.46,1.88-2.88,3.62-4.21,5.22-.33.41-.66.79-.99,1.17l-.12.14-.02.03-.03.06-.07.12c-.11.17-.21.34-.3.49-.27-.08-.45-.03-.62.06-.15.12-.4.14-.54-.06.18.33.14.75-.04.63-.23-.17-.41-.3-.55-.39-.16-.11-.27-.17-.35-.21-.16-.08-.19-.04-.23.01-.08.09-.14.23-1.4-.55-.19-.1-.41-.23-.65-.38-.06-.04-.13-.08-.19-.12l-.1-.06-.21-.15c-.3-.22-.62-.46-.96-.71-1.32-1-2.86-2.16-4.54-3.42-1.69-1.25-3.44-2.71-5.26-4.22-1.81-1.52-3.74-3.03-5.54-4.68-1.82-1.63-3.64-3.25-5.38-4.8-1.71-1.59-3.31-3.15-4.79-4.56-2.98-2.8-5.22-5.26-6.47-6.58-3.35-2.16-6.3-6.1-9.31-8.51l.39.16c-.78-.67-2.28-2.32-4.18-4.42-.95-1.05-2-2.22-3.1-3.45-1.06-1.26-2.17-2.58-3.29-3.9-1.11-1.33-2.23-2.66-3.3-3.94-1.04-1.3-2.04-2.55-2.95-3.69-1.84-2.26-3.32-4.08-4.08-5.01l.31.57c-2.89-3.03-1.92-3.06-3.72-5.81-.19.41-.93-.01-1.71-.69-.77-.68-1.6-1.61-2.03-2.14l.17-.06c-1.3-1.59-4.66-4.92-6.63-7.71l.44-.14c-.99-1.04-2.2-2.69-3.31-4.28-1.1-1.6-2.03-3.2-2.61-4.04-2.4-4.01-5.47-10.53-9.04-15.66l-.86-4.12-.4-.45s-4.14.42-8.15,1.9c-4,1.48-7.88,4.04-7.18,8.62l-.45.09.89,1.47c.82,1.9,1.73,2.48,1.27,2.58l-1.33-2.49c.9,1.87-.01.72-.62.16.39.78.75,1.53.97,2.2.35.27.01-.35-.06-.68.69.89,1.78,2.05,2.31,3.31,1.05,1.84-.55.48.68,2.63,6.38,11.4,13.03,22.24,21.08,32.74.04.35-.18.06-.48-.19,1.29,1.52,2.46,3,3.61,4.43.58.72,1.14,1.42,1.71,2.13.58.69,1.18,1.37,1.79,2.04.48.9.45,1.29.49,1.64-.02-.17.78.69,1.99,2.1.6.71,1.32,1.54,2.08,2.45.79.89,1.63,1.84,2.48,2.8,1.69,1.93,3.4,3.88,4.7,5.36,1.33,1.46,2.23,2.46,2.27,2.54Z"/>
  </g>
  <g>
    <path class="cls-1" d="M105.56,88.25c-.02,1.4.49,3.62.45,6.02.39-1.83.37-3.82-.45-6.02Z"/>
    <path class="cls-1" d="M106,94.32s0,.03,0,.04c0-.03,0-.06,0-.08,0,.02,0,.03,0,.05Z"/>
    <path class="cls-1" d="M171.09,96.34c.16,1.17.3,2.51.61,3.82-.27-1.26-.41-2.58-.61-3.82Z"/>
    <path class="cls-1" d="M46.61,71.8l-.5-.77c1.68-3.07,2.21-3.38,2.6-3.66.4-.28.73-.51,2.46-3.31.26-1.39,1.86-3.66,3.65-5.81,1.75-2.16,3.67-4.18,4.21-5.29.01.05.58-.58,1.13-1.11.55-.54,1.07-.96,1.14-.77.07-.53.53-1.09,1.06-1.57.53-.48,1.1-.87,1.48-1.25.21-.37-.33.01-.71.09.7-.67,1.23-1.07,1.72-1.37.38-.05.69,0,.77.1.08.1-.08.26-.42.43.53-.19,1.55-.51,3.76-.65,1.07-.07,2.54-.09,4.11-.06,1.55.05,3.2.11,4.86.31,3.33.36,6.8,1.09,9.78,2.38,1.49.63,2.86,1.39,4.07,2.26,1.2.86,2.26,1.85,3.23,3.06,1.98,2.29,3.51,5.51,4.74,9.11,1.19,3.65,2.04,7.67,2.74,11.57.34,2.01.67,3.93.98,5.73.31,1.84.61,3.63.9,5.35.1.89.41,1.62.62,2.4.23.76.46,1.51.68,2.24,1.76,5.57,6.46,8.28,9.28,9.11-.72-.36-1.67-.81-2.7-1.46-1.03-.65-2.2-1.56-3.12-2.61-.93-1.03-1.63-2.16-2.13-3.25-.25-.54-.45-1.08-.52-1.66-.1-.55-.17-1.05-.2-1.47.15.41.29.81.42,1.19.13.38.25.77.43,1.07.33.63.67,1.19,1,1.7.68,1.02,1.37,1.86,2.1,2.56,1.48,1.4,2.82,2.14,4.19,2.46.42.46,1.44,1.02,3.04,1.4.8.18,1.73.32,2.76.37,1.03.05,2.13.05,3.26.07,1.13.02,2.27.04,3.41.05l.54.02.43.02c.29.02.57.04.84.06,1.1.09,2.09.25,2.83.52l1.12-.62,1.93.37c17.11-.66,3.91-.32,19.08-.19,4.39-.05,7.63-.29,10.38-.48,1.38-.09,2.63-.18,3.84-.21.51,0,1.02-.01,1.53-.02h1.72c1.14,0,2.29.02,3.47.06-1.42,0-5.11-.38-.88-.54.43.27,3.28.17,6.23.07.74-.02,1.49-.05,2.21-.07.35-.02.75,0,1.04-.04.29-.05.57-.09.84-.13,1.08-.16,1.99-.25,2.53-.18,1.72-.29,5.44-.85,8.13-1.33.17-.03.33-.06.49-.09l.24-.04c.06-.03.2,0,.15-.11-.06-.35-.11-.69-.16-.99-.1-.61-.2-1.11-.29-1.46-.18-.7-.32-.77-.41.11.02-.22.02-.58.01-1.03-.02-.43-.04-.94-.07-1.49-.07-1.09-.15-2.31-.22-3.29-.13-1.95-.13-2.95.43.18-.4-3.41-.72-6.84-1.83-9.65l.56,2.39.32,2.28c-.15-.76-.29-1.49-.43-2.21-.21-.74-.41-1.47-.6-2.17-.35-1.4-.87-2.78-1.28-4.07-.43-1.3-.9-2.55-1.31-3.74-.2-.59-.43-1.21-.6-1.75-.12-.39-.25-.77-.37-1.14-.56-1.91-.82-3.16-1.19-4.1-.02.2-.05.4-.09.61-.05.2-.01.49-.03.74-.23-1.24-.26-2-.07-2.41,0-.13.08-.22.15-.3.06-.08.12-.16.17-.23.15-.1.31-.16.53-.17-.05.18-.07.29-.05.48,0,.08,0,.16-.03.23.02.09.04.18.04.27.03-.1,0-.22.04-.3.04-.08.06-.16.07-.25.02-.16.09-.27.17-.45.17-.33.47-.79.93-1.34.93-1.11,2.42-2.44,4.61-4.23l-1.58,1.12c.58-.55,1.66-1.43,3.08-2.53,1.41-1.1,3.1-2.35,5-3.68,3.78-2.63,8.38-5.45,12.96-7.34,2.28-.93,4.55-1.62,6.68-2.07,2.13-.45,4.11-.53,5.9-.54,3.55.11,6.21,1,7.55,1.31-.68-.47-1.36-.99-2.09-1.41.76.14,1.5.42,2.27.61.74.29,1.51.54,2.25.87-.24-.17-.99,0-1.67.15-.68.14-1.31.29-1.49.15.56.19,1.23.59,2.05.95.78.47,1.72.96,2.7,1.67,1.97,1.37,4.24,3.35,6.44,5.98,2.21,2.62,4.26,5.94,5.92,9.62.77,1.83,1.53,3.84,2.14,5.94.6,2.1,1.15,4.27,1.54,6.51,1.66,8.94,1.74,18.64,1.75,26.88,0,2.1,0,3.89-.08,5.56-.06,1.66-.18,3.12-.33,4.39-.3,2.54-.77,4.25-1.12,5.25-.17.38-.3.68-.42.89-.13.19-.24.32-.32.39-.17.14-.25.08-.3-.07-.05-.15-.05-.38-.04-.58,0-.21,0-.39-.03-.41-.25.86-.4,1.38-.51,1.73-.09.32-.09.52-.12.66-.05.27-.06.6-.84,1.54-.52.38-.22-.35-.11-.72-.56.86-1.35,1.25-1.24,1.5,1.03-.65,1.16.21,1.88.08-.78.83-1.65,1.47-2.72,1.96l-.06-.46c-.33.16-.63.65-1.44,1.19-.8.54-2.19,1.14-4.69,1.11-4.22.07-9.27-.85-14.66-1.96-5.25-1.09-10.31-2.44-14.81-4.25.24-.19,2.18.4,4.2.87-1.26-.4-3.14-1.02-4.18-1.63,1.01.62.02.37-.98-.01-1.01-.36-2.03-.82-1.25-.36-1.71-.46-3.45-1.15-5.14-2.01-1.68-.88-3.31-1.94-4.77-3.04-1.46-1.13-2.8-2.37-4.03-3.56-1.19-1.23-2.31-2.39-3.29-3.45-.29.05-1.7.08-3.78-.12-1.04-.1-2.2-.28-3.5-.53-1.24-.28-2.64-.62-3.98-1.08-1.35-.46-2.73-.99-3.98-1.6-1.29-.59-2.45-1.24-3.47-1.85-2.08-1.2-3.42-2.25-3.73-2.18-.16-.73-.25-1.47-.33-2.19-.08-.71-.18-1.39-.2-2.01-.05-1.25-.06-2.23-.03-2.69-.1.38-.22,2.09-.01,4.06.1.98.21,2.04.44,3.02.2.98.41,1.92.67,2.64l.74.35c.5,1.68.88,2.56,1.04,3.12.17.56.19.76.21.96.02.2.03.39.21.92.19.52.48,1.43,1.26,2.89-.14.27-.97-.93-1.9-2.95-.48-.99-.93-2.23-1.39-3.53-.41-1.33-.83-2.73-1.1-4.15.91,5.1,2.69,9.85,4.15,11.33.97,2.1.83,2.02.68,2.1-.12.05-.27.28,1.15,2.67,2.3,3.25,5.91,6.79,8.96,9.9l-.12.02c1.89,1.88,3.74,3.35,5.54,4.56,1.79,1.21,3.48,2.12,5.17,2.98,3.39,1.68,6.7,3.02,10.74,4.82l-.95-.18c1.41.7,3.6,1.48,6.07,2.21,2.44.7,5.16,1.48,7.77,2.22-1.46-.46-2.65-1.13.47-.44,2.93.85,5.41,1.35,7.66,1.77,2.43.45,4.64.87,6.95,1.3,1.57.02,3.21-.03,4.86-.13,1.55.05,3.42.07,5.69-.14,2.25-.21,4.9-.59,7.9-1.58,2.97-.98,6.31-2.6,9.32-5.11,3.02-2.47,5.61-5.83,7.35-9.36,1.77-3.54,2.8-7.2,3.42-10.71.6-3.5.83-6.88.91-10.14.04-1.62.04-3.23.03-4.76-.01-1.5-.03-3.02-.04-4.54-.04-3.07-.12-6.23-.27-9.43-.29-6.4-.98-13.06-2.35-19.55-.69-3.25-1.59-6.44-2.65-9.52-.28-.77-.52-1.52-.83-2.29-.31-.77-.62-1.53-.93-2.28-.31-.75-.68-1.47-1.01-2.19-.33-.73-.69-1.43-1.06-2.11-2.9-5.53-6.43-10.13-9.96-13.71-3.52-3.59-7.05-6.13-9.79-7.77l.9.45c-4.11-2.58-9.38-4.93-15.55-6.01-6.09-1.03-12.86-.66-19.11,1.04-6.3,1.65-12.12,4.39-17.52,7.49-2.7,1.56-5.28,3.22-7.81,4.92-1.25.85-2.5,1.71-3.71,2.58-1.21.85-2.45,1.74-3.81,2.79-2.66,2.09-5.74,4.65-8.37,8.64-1.28,1.96-2.45,4.33-3.05,6.76-.72,2.41-.91,4.88-.89,7.18.04,1.11.14,2.22.27,3.26l.25,1.5c.08.51.18.99.3,1.43.22.91.44,1.84.7,2.63l.38,1.24.26.76c.17.4.34.8.5,1.19.16.4.3.82.37,1.25-.28.11-.72.08-1.07.13-1.12.07-.06.14-5.49.23-4.79-.48-11.39-.36-16.38-.49,2.78.2,1.83.55-.34.53-15.22-.04-1.03.34-16.42.57-1.11.02-2.41.05-3.88.08-.37.02-.78.03-1.22.05-.22,0-.46.03-.7,0-.24-.02-.49-.15-.61-.38-.24-.46-.25-1.02-.37-1.57-.3-1.77-.61-3.62-.93-5.53-.45-2.5-.93-5.11-1.57-7.84-1.24-5.42-3.03-11.36-6.22-17.12-1.58-2.88-3.62-5.64-5.91-8.16-2.34-2.47-5.02-4.69-7.81-6.4-5.6-3.47-11.4-5.22-16.52-6.22-5.14-.96-9.72-1.2-13.53-1.22-3.77-.05-7.48.28-10.25.92-1.46.44-3,1-4.58,1.74-1.59.75-3.15,1.68-4.52,2.67-2.77,1.99-4.93,4.21-6.74,6.24-.91,1.02-1.71,1.97-2.5,2.92-.79.95-1.57,1.89-2.31,2.85-.75.95-1.48,1.9-2.16,2.86-.69.94-1.34,1.89-1.94,2.82l.39-.82c-1.35,1.96-4.42,6.13-7.73,12.03-3.34,5.85-6.82,13.62-8.63,22.18-.2,1.07-.43,2.14-.6,3.23-.14,1.09-.29,2.18-.43,3.26-.1,1.12-.16,2.25-.23,3.37-.07,1.12-.01,2.22-.02,3.31.12,4.37.73,8.51,1.68,12.2,1.91,7.39,5.09,12.89,6.93,15.52-.28-.5-.61-.98-.85-1.5,1.59,2.29,2.79,3.9,3.82,5.11.5.61.89,1.17,1.31,1.64.41.48.77.91,1.12,1.32.35.42.68.83,1.04,1.26.36.43.79.84,1.26,1.31.47.47,1.01.99,1.64,1.58.67.56,1.47,1.16,2.42,1.85-.14-.34.29-.26,1.07.07.79.31,1.98.79,3.28,1.38,1.3.57,2.83,1.04,4.19,1.55,1.38.45,2.64.77,3.54,1l-.18.13c1.36.32,3.15.66,5.15.88,2.01.22,4.23.32,6.47.3,2.24,0,4.5-.12,6.65-.25,2.12-.14,4.2-.28,6.09-.4l-.28.46c3.19-.4,7.9-.8,12.53-1.62,4.63-.81,9.17-2.2,11.63-3.31,2.84-1.14,6.1-2.77,9.29-5.25.79-.63,1.6-1.26,2.35-2.01.76-.72,1.54-1.47,2.25-2.29,1.43-1.63,2.69-3.4,3.78-5.23,1.09-1.83,2.03-3.71,2.82-5.59.79-1.88,1.48-3.77,2.06-5.74,1.16-3.92,1.88-8.03,1.96-12.11.63-3.48.85-7.18.49-11.01-.15-.54-.3-1.08-.5-1.61,0,0-.31-.23-.83-.55-.52-.33-1.27-.75-2.19-1.13-1.79-.79-4.23-1.33-6.4-1.06-1.09.14-2.15.42-3.09.9-.95.46-1.73,1.2-2.43,2-1.35,1.66-2.13,3.78-2.52,6.96l-.47-.14c.13.8.21,1.63.25,2.48-.08,1.53-.09,2.69-.12,3.44-.03.75-.05,1.07-.26.93.2-1.46.3-2.9.29-4.29-.15,3.1-.34.9-.62-.22,0,1.24-.11,2.49-.36,3.52.09.64.25-.44.36-.91.06,1.66.11,4.18-.68,6.28-.46,1.67-.7,1.66-.89,1.73-.21.07-.41.2-1.13,2.1-.99,2.5-2.12,4.64-3.35,6.24-.31.4-.62.77-.93,1.11-.32.34-.69.64-1.01.98l-1.12.9c-.43.26-.81.55-1.25.81-3.48,2.09-8.52,3.34-14.2,3.9-2.84.29-5.84.44-8.98.52-3.21.09-6.19.12-8.9-.04-2.71-.16-5.13-.53-7.2-1.15-1.05-.29-1.93-.75-2.88-1.12-.44-.26-.89-.51-1.35-.75-.46-.24-.86-.6-1.31-.87-.21-.36.17-.1.61.1-2.12-1.33-3.94-3.13-5.49-5.2-1.56-2.07-2.81-4.43-3.84-6.97-.21-.73-.2-1.25-.2-1.62,0-.37.06-.61.08-.84-.02.24-.66-1.42-1.13-4.19-.06-.35-.12-.71-.19-1.08-.04-.38-.07-.77-.11-1.17-.03-.4-.1-.82-.12-1.25,0-.43-.02-.86-.03-1.3-.06-.89.04-1.79.07-2.72.04-.93.22-1.98.33-2.98.63-4.05,1.95-8.17,3.26-11.26,1.3-3.1,2.48-5.18,2.55-5.3Z"/>
  </g>
</svg>